<svg id="Camada_1" data-name="Camada 1" xmlns="http://www.w3.org/2000/svg" viewBox="0 0 2000 2000"><defs><style>.cls-1{fill:#fff;}</style></defs><path class="cls-1" d="M1911.86,1275.94v349.54c0,188.85-153.1,341.94-341.95,341.94H430.09c-188.85,0-341.95-153.09-341.95-341.94v-321C88.14,1099.85,254,934,458.59,934H558.94a28.58,28.58,0,0,1,20.11,8.32c108.11,107,256.81,173.1,421,173.1s312.84-66.09,421-173.1a28.58,28.58,0,0,1,20.11-8.32h128.85C1758.76,934,1911.86,1087.08,1911.86,1275.94Z"/><path class="cls-1" d="M1484.42,517c0,177.45-95.41,332.61-237.73,417a485,485,0,0,1-493.38,0C611,849.61,515.58,694.45,515.58,517c0-267.54,216.88-484.42,484.42-484.42S1484.42,249.46,1484.42,517Z"/></svg>