<svg id="Camada_1" data-name="Camada 1" xmlns="http://www.w3.org/2000/svg" viewBox="0 0 3000 1500"><defs><style>.cls-1,.cls-2{fill:#fff;}.cls-2{stroke:#fff;stroke-miterlimit:10;stroke-width:10px;}</style></defs><path class="cls-1" d="M1003.47,803.27a202.92,202.92,0,0,0-45-65.17,205.13,205.13,0,0,0-143.89-58.33,63.22,63.22,0,1,1,0-126.43h96.23V412.88H20v674.24H160.94V553.34H341.37V879.88l141,.13V553.34h139A204,204,0,0,0,815.62,820.23a63.22,63.22,0,1,1,0,126.43H718.37v140.46h96.22a209.05,209.05,0,0,0,30.27-2.2,205.84,205.84,0,0,0,124.71-67.79,202.51,202.51,0,0,0,33.9-213.86Z"/><path class="cls-2" d="M1350.89,417.7h30V646.3h-31.29V475.08l1.57,10.07-56.28,129.39h-22.33L1216.3,488.29l1.57-13.21V646.3h-31.28V417.7h30l67.13,150.93Z"/><path class="cls-2" d="M1496.64,417.7H1524l84.27,228.6h-34.59l-63.36-184.42L1447,646.3h-34.59Zm-45.44,148h120.28v30.5H1451.2Z"/><path class="cls-2" d="M1642.86,417.54h32.07V646.3h-32.07Zm14,101.57h78a30.07,30.07,0,0,0,16.19-4.4,29,29,0,0,0,10.93-12.5,47,47,0,0,0,0-37.27,29.26,29.26,0,0,0-10.85-12.5,30,30,0,0,0-16.27-4.4h-78v-30.5h76.73q19.82,0,34.82,8.17a57.38,57.38,0,0,1,23.27,23.2q8.26,15,8.26,34.66t-8.34,34.67a57.83,57.83,0,0,1-23.34,23.19q-15,8.18-34.67,8.18h-76.73Zm62.26,23.42L1751,535.3l58.49,111h-38Z"/><path class="cls-2" d="M1852.76,417.7h32.07V646.3h-32.07ZM1877.91,546,1978.85,417.7h39.47L1873.2,594.1Zm38-21.69,25.31-23.43,86.64,145.43H1988.6Z"/><path class="cls-2" d="M2087.34,645.52a118.07,118.07,0,0,1-27.6-9.44,116.53,116.53,0,0,1-24-15.72l20-24.53a90.09,90.09,0,0,0,28.77,17,99.83,99.83,0,0,0,34.12,5.66q24.84,0,38.52-9.19t13.68-26v-.16q0-12-6.21-19a37.15,37.15,0,0,0-16-10.37,176.7,176.7,0,0,0-25.39-6.21,3.13,3.13,0,0,0-1-.16,3.07,3.07,0,0,1-1-.16l-2.36-.47q-23-3.93-37.34-8.88t-24.6-18.09q-10.23-13.12-10.22-37.34v-.15q0-21.22,9.51-36.24t27.75-22.88q18.24-7.86,43.87-7.86a109.68,109.68,0,0,1,24.13,2.67,120.12,120.12,0,0,1,23.43,7.94A135,135,0,0,1,2198,439.24l-18.24,25.47a106.69,106.69,0,0,0-26-14.39,74.54,74.54,0,0,0-26-4.79q-23.43,0-36.4,9.35t-13,26.49v.16q0,11.79,6.68,18.55a40.43,40.43,0,0,0,16.66,10,252.62,252.62,0,0,0,27.75,6.68c.42.1.82.18,1.18.23s.76.14,1.18.24,1.1.21,1.73.32,1.21.21,1.73.31q20.76,4.24,34.67,10.06a54.09,54.09,0,0,1,23.27,18.79q9.34,13,9.35,35.46v.31q0,20.91-9.9,35.77T2164,640.88q-18.79,7.79-45.36,7.78A150.49,150.49,0,0,1,2087.34,645.52Z"/><path class="cls-2" d="M2301,417.7h27.36l84.27,228.6h-34.59l-63.36-184.42L2251.33,646.3h-34.59Zm-45.44,148h120.28v30.5H2255.57Z"/><path class="cls-2" d="M2447.23,417.7h32.07V646.3h-32.07Zm16,198.1h130.81v30.5H2463.27Z"/><path class="cls-2" d="M2631.81,417.7h32.08V646.3h-32.08Zm15.57,0h131.28v30.5H2647.38Zm0,99.84h114V548h-114Zm0,98.26h131.28v30.5H2647.38Z"/><path class="cls-2" d="M2861.68,645.52a118.23,118.23,0,0,1-27.6-9.44,116.53,116.53,0,0,1-24-15.72l20-24.53a90.2,90.2,0,0,0,28.77,17,99.83,99.83,0,0,0,34.12,5.66q24.84,0,38.52-9.19t13.68-26v-.16q0-12-6.21-19a37.15,37.15,0,0,0-16-10.37,176.7,176.7,0,0,0-25.39-6.21,3.13,3.13,0,0,0-1-.16,3.11,3.11,0,0,1-1-.16l-2.36-.47q-22.95-3.93-37.34-8.88t-24.6-18.09Q2821,506.69,2821,482.47v-.15q0-21.22,9.51-36.24t27.75-22.88q18.24-7.86,43.87-7.86a109.68,109.68,0,0,1,24.13,2.67,120.12,120.12,0,0,1,23.43,7.94,135,135,0,0,1,22.72,13.29l-18.24,25.47a106.69,106.69,0,0,0-26-14.39,74.5,74.5,0,0,0-26-4.79q-23.43,0-36.4,9.35t-13,26.49v.16q0,11.79,6.68,18.55a40.4,40.4,0,0,0,16.67,10,251.47,251.47,0,0,0,27.75,6.68,11.63,11.63,0,0,0,1.18.23q.54.09,1.17.24c.53.11,1.1.21,1.73.32s1.21.21,1.73.31q20.76,4.24,34.67,10.06a54.09,54.09,0,0,1,23.27,18.79q9.36,13,9.36,35.46v.31q0,20.91-9.91,35.77t-28.69,22.64q-18.79,7.79-45.36,7.78A150.49,150.49,0,0,1,2861.68,645.52Z"/><path class="cls-2" d="M1186.59,853.7h32.07v228.6h-32.07Zm16,198.1h130.82v30.5H1202.62Z"/><path class="cls-2" d="M1330.29,853.7h161.32v30.5H1330.29Zm64.62,18.71H1427V1082.3h-32.08Z"/><path class="cls-2" d="M1523.05,853.7h32.08v228.6h-32.08Zm21.7,198.1h51.73q25.3,0,39.22-13.13t13.92-37v-67.3q0-23.9-13.92-37t-39.22-13.13h-51.73V853.7h50.78q27.53,0,47,9.59a66.8,66.8,0,0,1,29.72,28q10.21,18.4,10.22,44.34v64.78q0,25.93-10.22,44.34a66.76,66.76,0,0,1-29.79,28q-19.58,9.6-47.09,9.59h-50.63Z"/><path class="cls-2" d="M1787.19,853.7h27.36l84.27,228.6h-34.59l-63.36-184.42-63.36,184.42h-34.59Zm-45.44,147.95H1862v30.5H1741.75Z"/></svg>